<?xml version="1.0" encoding="UTF-8" standalone="no"?>
<!-- Generator: Adobe Illustrator 17.0.0, SVG Export Plug-In . SVG Version: 6.00 Build 0)  -->

<svg
   xmlns:dc="http://purl.org/dc/elements/1.1/"
   xmlns:cc="http://creativecommons.org/ns#"
   xmlns:rdf="http://www.w3.org/1999/02/22-rdf-syntax-ns#"
   xmlns:svg="http://www.w3.org/2000/svg"
   xmlns="http://www.w3.org/2000/svg"
   xmlns:sodipodi="http://sodipodi.sourceforge.net/DTD/sodipodi-0.dtd"
   xmlns:inkscape="http://www.inkscape.org/namespaces/inkscape"
   version="1.1"
   x="0px"
   y="0px"
   width="371.19315"
   height="719.86743"
   viewBox="0 0 371.19315 719.86743"
   enable-background="new 0 0 1280 800"
   xml:space="preserve"
   id="svg2"
   inkscape:version="0.91 r13725"
   sodipodi:docname="leaf_off.svg"><metadata
     id="metadata19"><rdf:RDF><cc:Work
         rdf:about=""><dc:format>image/svg+xml</dc:format><dc:type
           rdf:resource="http://purl.org/dc/dcmitype/StillImage" /><dc:title></dc:title></cc:Work></rdf:RDF></metadata><defs
     id="defs17" /><sodipodi:namedview
     pagecolor="#ffffff"
     bordercolor="#666666"
     borderopacity="1"
     objecttolerance="10"
     gridtolerance="10"
     guidetolerance="10"
     inkscape:pageopacity="0"
     inkscape:pageshadow="2"
     inkscape:window-width="1920"
     inkscape:window-height="1004"
     id="namedview15"
     showgrid="false"
     fit-margin-top="0"
     fit-margin-left="0"
     fit-margin-right="0"
     fit-margin-bottom="0"
     inkscape:zoom="0.295"
     inkscape:cx="318.02625"
     inkscape:cy="360.80634"
     inkscape:window-x="0"
     inkscape:window-y="24"
     inkscape:window-maximized="1"
     inkscape:current-layer="svg2" /><g
     id="Calque_2"
     transform="translate(-321.97375,-40.938884)"><linearGradient
       id="SVGID_1_"
       gradientUnits="userSpaceOnUse"
       x1="323.98981"
       y1="399.6456"
       x2="691.14148"
       y2="399.6456"><stop
         offset="0"
         style="stop-color:#39B54A"
         id="stop6" /><stop
         offset="1"
         style="stop-color:#86D74A"
         id="stop8" /></linearGradient><path
       stroke-miterlimit="10"
       d="m 382.722,744.582 c 0,0 -90.477,-195.694 -46.835,-335.443 C 356.672,342.582 413.634,298.278 502.22,177.493 575.804,77.163 552.343,42.05 552.343,42.05 c 0,0 175.949,268.354 131.646,436.709 -44.305,168.355 -259.495,273.418 -273.419,278.481 0,0 37.241,-76.684 51.573,-207.907 9.455,-86.567 22.376,-111.814 52.756,-206.751 27.726,-86.644 -63.607,101.56 -75,177.51 -23.805,158.7 -57.177,224.49 -57.177,224.49 z"
       id="path10"
       inkscape:connector-curvature="0"
       style="fill:url(#SVGID_1_);stroke:#000000;stroke-width:4;stroke-miterlimit:10" /></g><g
     id="Calque_3"
     transform="translate(-321.97375,-40.938884)"><path
       stroke-miterlimit="10"
       d="m 382.722,744.582 c 0,0 -90.477,-195.694 -46.835,-335.443 C 356.672,342.582 413.634,298.278 502.22,177.493 575.804,77.163 552.343,42.05 552.343,42.05 c 0,0 175.949,268.354 131.646,436.709 -44.305,168.355 -259.495,273.418 -273.419,278.481 0,0 37.241,-76.684 51.573,-207.907 9.455,-86.567 22.376,-111.814 52.756,-206.751 27.726,-86.644 -63.607,101.56 -75,177.51 -23.805,158.7 -57.177,224.49 -57.177,224.49 z"
       id="path13"
       inkscape:connector-curvature="0"
       style="fill:#c2c4bf;stroke:#000000;stroke-width:4;stroke-miterlimit:10" /></g></svg>