<?xml version="1.0" encoding="utf-8"?>
<!-- Generator: Adobe Illustrator 17.0.0, SVG Export Plug-In . SVG Version: 6.00 Build 0)  -->
<!DOCTYPE svg PUBLIC "-//W3C//DTD SVG 1.1//EN" "http://www.w3.org/Graphics/SVG/1.1/DTD/svg11.dtd">
<svg version="1.1" xmlns="http://www.w3.org/2000/svg" xmlns:xlink="http://www.w3.org/1999/xlink" x="0px" y="0px" width="1280px"
	 height="800px" viewBox="0 0 1280 800" enable-background="new 0 0 1280 800" xml:space="preserve">
<g id="Calque_2">
	<linearGradient id="SVGID_1_" gradientUnits="userSpaceOnUse" x1="323.9898" y1="399.6456" x2="691.1415" y2="399.6456">
		<stop  offset="0" style="stop-color:#39B54A"/>
		<stop  offset="1" style="stop-color:#86D74A"/>
	</linearGradient>
	<path fill="url(#SVGID_1_)" stroke="#000000" stroke-width="4" stroke-miterlimit="10" d="M382.722,744.582
		c0,0-90.477-195.694-46.835-335.443c20.785-66.557,77.747-110.861,166.333-231.646c73.584-100.33,50.123-135.443,50.123-135.443
		s175.949,268.354,131.646,436.709C639.684,647.114,424.494,752.177,410.57,757.24c0,0,37.241-76.684,51.573-207.907
		c9.455-86.567,22.376-111.814,52.756-206.751c27.726-86.644-63.607,101.56-75,177.51
		C416.094,678.792,382.722,744.582,382.722,744.582z"/>
</g>
<g id="Calque_3" display="none">
	<path display="inline" fill="#C2C4BF" stroke="#000000" stroke-width="4" stroke-miterlimit="10" d="M382.722,744.582
		c0,0-90.477-195.694-46.835-335.443c20.785-66.557,77.747-110.861,166.333-231.646c73.584-100.33,50.123-135.443,50.123-135.443
		s175.949,268.354,131.646,436.709C639.684,647.114,424.494,752.177,410.57,757.24c0,0,37.241-76.684,51.573-207.907
		c9.455-86.567,22.376-111.814,52.756-206.751c27.726-86.644-63.607,101.56-75,177.51
		C416.094,678.792,382.722,744.582,382.722,744.582z"/>
</g>
</svg>
